PathFileType	4	(X/Y/Z)	s04c0301.trc
DataRate	CameraRate	NumFrames	NumMarkers	Units	OrigDataRate	OrigDataStartFrame	OrigNumFrames
200	200	4	50	mm	200	1250	2000
Frame#	Time	racr			lacr			c7			jug			rlel			rdr			llel			ldr			s2			lic			ric			lasi			rasi			rpsi			lpsi			rgt			lgt			rth1			rth2			rth3			rth4			rlfc			rmfc			rsh1			rsh2			rsh3			rsh4			rlmal			rmmal			rcal			rtoe			rmt5			lth1			lth2			lth4			lth3			llfc			lmfc			lsh1			lsh2			lsh3			lsh4			llmal			lmmal			lcal			ltoe			lmt5			SBIKE			LBIKE			RBIKE			
		X1	Y1	Z1	X2	Y2	Z2	X3	Y3	Z3	X4	Y4	Z4	X5	Y5	Z5	X6	Y6	Z6	X7	Y7	Z7	X8	Y8	Z8	X9	Y9	Z9	X10	Y10	Z10	X11	Y11	Z11	X12	Y12	Z12	X13	Y13	Z13	X14	Y14	Z14	X15	Y15	Z15	X16	Y16	Z16	X17	Y17	Z17	X18	Y18	Z18	X19	Y19	Z19	X20	Y20	Z20	X21	Y21	Z21	X22	Y22	Z22	X23	Y23	Z23	X24	Y24	Z24	X25	Y25	Z25	X26	Y26	Z26	X27	Y27	Z27	X28	Y28	Z28	X29	Y29	Z29	X30	Y30	Z30	X31	Y31	Z31	X32	Y32	Z32	X33	Y33	Z33	X34	Y34	Z34	X35	Y35	Z35	X36	Y36	Z36	X37	Y37	Z37	X38	Y38	Z38	X39	Y39	Z39	X40	Y40	Z40	X41	Y41	Z41	X42	Y42	Z42	X43	Y43	Z43	X44	Y44	Z44	X45	Y45	Z45	X46	Y46	Z46	X47	Y47	Z47	X48	Y48	Z48	X49	Y49	Z49	X50	Y50	Z50	
1250	6.2500	843.846345	1229.061340	-110.113355	848.593228	1231.792700	-433.042182	883.089347	1302.435921	-282.515465	776.467144	1190.981118	-287.634667	565.986126	1119.428515	31.746283	703.493128	920.916034	-111.285068	612.520655	1134.024760	-587.765610	699.682019	907.563383	-482.802131	276.226463	1307.528500	-345.777928	444.724599	1224.402112	-471.473878	398.567468	1304.760089	-161.208782	450.433950	1171.934653	-415.241133	422.222163	1231.350520	-185.229770	313.504948	1349.919366	-308.329666	324.186980	1331.289241	-378.716664	347.611364	1274.419716	-140.369587	351.658184	1148.096316	-490.646205	443.631665	1144.444711	-125.856157	513.481627	1090.977796	-132.858060	549.921650	1014.024810	-131.482895	536.908365	1111.539073	-155.088128	625.371097	887.159560	-153.234611	598.173402	868.568179	-264.238977	538.730674	800.542649	-123.749094	490.665026	723.169658	-132.121073	412.351472	686.462062	-132.414357	512.447126	702.270639	-156.786328	309.221040	570.844088	-130.829873	327.203139	567.382818	-216.469579	230.346318	571.016975	-166.016207	490.578313	418.341369	-169.396963	423.763831	429.430771	-110.431724	346.933268	1061.228291	-500.066393	370.552831	977.723519	-498.373754	405.342228	978.892413	-488.572649	348.560795	891.341394	-498.710312	329.800108	727.354835	-475.324570	348.431002	695.543350	-363.163388	270.384899	613.374516	-492.088467	243.545911	533.645477	-469.737950	178.694722	473.142534	-466.281200	269.390220	521.791547	-441.915389	96.533523	349.783056	-458.629417	96.178984	351.107337	-370.565611	29.937458	385.304041	-416.856759	224.331236	150.519958	-408.531549	151.491885	177.911374	-472.527163	-185.682505	935.372249	-286.163556	-17.543627	79.478150	-485.452911	-17.533238	79.395957	-84.782943	
1251	6.2550	843.942889	1228.467261	-110.886584	847.809690	1232.378803	-433.614098	882.368320	1302.721113	-282.996620	776.332070	1190.722289	-288.139793	565.766166	1119.648711	30.831926	702.381567	920.530690	-111.378516	612.463446	1133.945234	-588.208223	699.617731	907.683723	-483.164340	276.694137	1311.256640	-343.423277	443.836587	1228.062081	-470.775767	399.525853	1305.621679	-159.609834	449.788727	1174.777393	-415.070133	422.618415	1232.361751	-184.608923	314.238498	1352.986097	-305.603142	324.561125	1334.792217	-375.892228	348.142733	1275.299049	-138.913559	351.673106	1152.234501	-489.997883	442.314474	1143.533538	-125.521427	511.361725	1089.272306	-133.016703	546.113374	1011.583640	-132.373550	535.025543	1109.569579	-155.098137	621.290683	882.982565	-156.036793	592.550295	865.312907	-265.541597	535.330371	794.575183	-124.835297	489.122517	715.945058	-133.366465	411.957010	677.412540	-133.128140	511.529292	695.735585	-158.344336	311.786513	560.153355	-130.724737	329.644456	557.019979	-216.783418	232.875569	558.287339	-165.890034	497.122844	412.386457	-169.439268	430.160977	422.111549	-110.233752	349.504349	1063.993074	-498.960791	375.695493	981.212215	-497.507388	410.250972	983.360910	-486.916333	356.341704	894.171691	-498.493060	341.062345	730.421773	-476.348338	357.733753	698.553833	-364.501918	277.334556	618.129784	-493.328646	248.013150	539.408735	-470.576840	181.325391	481.016944	-467.110494	273.210103	526.909319	-442.396599	94.713356	359.751101	-458.882963	94.653071	361.538490	-370.738968	28.995313	396.700569	-416.716538	216.900851	156.318552	-408.520521	144.805532	185.959990	-472.401554	-185.569943	935.490980	-285.988740	-17.522271	79.562724	-485.440167	-17.518904	79.421744	-84.787573	
1252	6.2600	844.223953	1228.150281	-111.742007	846.996563	1232.975303	-434.421733	881.633818	1303.108791	-283.627829	776.269765	1190.489204	-288.755435	565.735932	1120.112102	29.664288	702.395617	920.530139	-111.917321	612.278747	1133.841030	-588.770900	700.256436	908.560721	-485.749168	277.092989	1314.652830	-341.016939	442.950728	1231.654662	-470.068973	400.451013	1306.283906	-158.195143	449.094261	1177.686142	-414.965402	423.086362	1233.226136	-184.179487	314.890389	1355.674950	-302.790565	327.267148	1337.811862	-375.472893	348.532940	1275.725797	-137.362306	352.062883	1156.570458	-489.877771	440.725565	1142.035324	-125.104843	509.033036	1086.897989	-133.020422	543.049578	1008.844577	-133.226270	533.019814	1107.055274	-154.816880	616.170629	878.914819	-157.552094	586.731334	861.779491	-266.657572	531.960073	788.218478	-125.954781	487.614711	708.671267	-134.552345	411.576945	668.106267	-133.940483	510.541976	689.007504	-159.713202	314.826973	548.779638	-130.756647	332.676895	546.139157	-217.296426	235.484499	545.635454	-165.814666	503.075018	405.706210	-169.624906	435.955744	414.083534	-110.311365	352.451252	1066.839509	-497.883536	381.316213	984.769562	-496.724204	415.525194	987.908438	-485.356632	364.550192	897.110628	-498.367351	353.103567	733.500695	-477.740274	367.535588	701.633197	-365.869995	284.586642	623.118726	-494.461473	252.874127	545.454142	-471.494611	184.354903	489.095350	-467.849444	277.574635	532.438595	-443.338461	93.804523	369.901648	-459.398524	93.646976	372.136171	-371.321397	28.640519	408.395634	-417.075097	209.873290	162.449608	-408.320956	138.842078	194.159345	-472.078621	-185.447709	935.553556	-285.805091	-17.505075	79.646398	-485.423412	-17.487893	79.405637	-84.764798	
1253	6.2650	844.606887	1228.043455	-112.738184	846.059813	1233.575685	-435.386445	880.895531	1303.596823	-284.395105	776.188285	1190.373072	-289.397663	565.809236	1120.780273	28.547394	702.442765	920.508427	-112.080392	612.017583	1133.714488	-589.452244	700.151406	908.654529	-486.082618	277.285957	1317.670142	-338.453213	442.061720	1235.150419	-469.299876	401.242238	1306.421654	-156.602681	449.976108	1180.869446	-417.406348	423.559590	1233.675796	-183.708248	315.420201	1358.040449	-299.904145	327.632210	1340.762422	-372.606391	348.914193	1275.593645	-135.879589	352.496592	1160.600769	-489.318082	438.965960	1140.075039	-124.362198	506.442939	1084.064522	-132.844762	539.515731	1005.582628	-133.996700	530.818031	1104.142459	-154.175824	610.084646	875.037195	-157.675297	580.792789	857.671476	-267.624038	528.371968	781.761805	-126.913973	486.031649	701.004907	-135.632546	411.176231	658.482686	-134.788385	509.436406	682.115655	-160.932229	317.695222	537.531555	-130.836918	334.892841	535.440551	-217.624891	238.386885	533.191261	-166.173656	508.483413	398.125185	-169.668360	441.241178	405.435770	-110.493742	355.777067	1069.610789	-496.949442	387.125016	988.340365	-495.669619	421.025824	992.411733	-483.686036	373.213488	900.390006	-498.621446	364.935499	736.654065	-478.754500	377.507404	704.775877	-367.072023	292.309945	628.444970	-495.857449	258.142601	551.719793	-472.519728	187.897211	497.432517	-468.921517	282.240514	538.148329	-444.094946	93.355190	380.096154	-460.225697	92.844317	382.777391	-372.050673	28.887156	420.407906	-418.238801	203.355842	169.316326	-407.534457	133.661494	203.034674	-471.744800	-185.282198	935.452496	-285.511829	-17.467672	79.704372	-485.418999	-17.464071	79.421767	-84.761296	
